# xmcd
#
# Track frame offsets: 
#        150
#        835
#        14525
#        25550
#        35125
#        37540
#        41025
#        55027
#        65972
#        66897
#        68922
#        78285
#        82575
#        94100
#        108975
#        111045
#        121675
#
# Disc length: 1673 seconds
#
# Revision: 0
# Processed by: cddbd v1.4PL0 Copyright (c) Steve Scherf et al.
# Submitted via: ExactAudioCopy v0.90b3
#
DISCID=c4068711
DTITLE=Eddie Rabbitt - Songs From Rabbittland
DYEAR=1900
DGENRE=Country
TTITLE0=Hi Kids
TTITLE1=Come With Me (Rabbittland)
TTITLE2=Why, Why, Why
TTITLE3=Who's That Pullin' On Me
TTITLE4=Mr. Eddie and Miss Angela #1
TTITLE5=Heat 'Em Up, Eat 'Em Up
TTITLE6=You Can Do Anything
TTITLE7=Andrew The Squirrel
TTITLE8=Mr. Eddie and Miss Angela #2
TTITLE9=Woodchuck
TTITLE10=Puppy
TTITLE11=26 Sheep Story
TTITLE12=All The Little Animals
TTITLE13=Friend
TTITLE14=Mr. Eddie and Miss Angela #3
TTITLE15=Can You Tell Me A Story
TTITLE16=Sleepy Deepy Do
EXTD=
EXTT0=
EXTT1=
EXTT2=
EXTT3=
EXTT4=
EXTT5=
EXTT6=
EXTT7=
EXTT8=
EXTT9=
EXTT10=
EXTT11=
EXTT12=
EXTT13=
EXTT14=
EXTT15=
EXTT16=
PLAYORDER=
